<svg width="16" height="14" viewBox="0 0 16 14" fill="none" xmlns="http://www.w3.org/2000/svg">
<path fill-rule="evenodd" clip-rule="evenodd" d="M1.35776 4.35954C0.15745 6.80425 -0.158183 9.20437 0.0679444 11.5772C1.29133 12.4811 2.66066 13.1685 4.11639 13.6096C4.44417 13.1687 4.73422 12.701 4.98346 12.2115C4.51007 12.0346 4.05317 11.8165 3.61804 11.5596C3.73256 11.4765 3.84456 11.3909 3.95279 11.3079C5.21891 11.9033 6.60083 12.212 7.99997 12.212C9.39912 12.212 10.781 11.9033 12.0472 11.3079C12.1566 11.3972 12.2686 11.4828 12.3819 11.5596C11.9459 11.8169 11.4882 12.0355 11.014 12.2127C11.2629 12.7021 11.553 13.1694 11.881 13.6096C13.338 13.1703 14.7084 12.4832 15.932 11.5785C16.1887 8.91658 15.71 6.52885 14.6441 4.35954H1.35776ZM3.90119 8.15294C3.90119 9.03386 4.55307 9.74992 5.34212 9.74992C6.14627 9.74992 6.76795 9.03386 6.78179 8.15294C6.79563 7.27203 6.14879 6.54967 5.3396 6.54967C4.53042 6.54967 3.90119 7.27203 3.90119 8.15294ZM9.21815 8.15294C9.21815 9.03386 9.86752 9.74992 10.6578 9.74992C11.462 9.74992 12.0824 9.03386 12.0962 8.15294C12.1101 7.27203 11.4683 6.54967 10.6578 6.54967C9.84738 6.54967 9.21815 7.27203 9.21815 8.15294Z" fill="#5865F2"/>
<path d="M4.31337 0.711094C4.97409 0.378693 5.67883 0.1583 6.39124 0C6.67624 0.478046 6.93634 0.995727 7.16285 1.50181C7.43169 1.45692 7.70147 1.4403 7.97234 1.43708V1.43666C7.97402 1.43666 7.97578 1.43708 7.97746 1.43708C7.97907 1.43708 7.98082 1.43666 7.98271 1.43666V1.43708C8.25308 1.4403 8.5231 1.45692 8.79187 1.50181C9.01852 0.995727 9.27877 0.478046 9.56334 0C10.2761 0.1583 10.9807 0.378693 11.6415 0.711094C11.6264 1.29423 11.5887 1.85296 11.5124 2.42051C11.7685 2.58482 12.0385 2.72584 12.2781 2.91819C12.522 3.10544 12.7702 3.28458 12.9907 3.50357C13.4312 3.21235 13.8976 2.93868 14.3777 2.6971C14.8955 3.25402 15.3798 3.85511 15.7752 4.52774C15.5165 4.9441 15.1789 5.43899 14.8223 5.88763H1.13254C0.823832 5.50544 0.490472 5.01534 0.179688 4.52774C0.575141 3.85511 1.05924 3.25402 1.57697 2.6971C2.05728 2.93868 2.52351 3.21235 2.96401 3.50357C3.18451 3.28458 3.43322 3.10544 3.67673 2.91819C3.9164 2.72584 4.18607 2.58482 4.44266 2.42051C4.3662 1.85296 4.32848 1.29423 4.31337 0.711094Z" fill="#5865F2"/>
</svg>
