<svg width="512" height="512" viewBox="0 0 512 512" fill="none" xmlns="http://www.w3.org/2000/svg">
<g id="Discord Other">
<path id="Vector" d="M426.667 170.667H366.72C357.098 153.978 343.824 139.684 327.893 128.853L362.667 94.08L332.587 64L286.293 110.293C276.48 107.947 266.453 106.667 256 106.667C245.547 106.667 235.52 107.947 225.92 110.293L179.413 64L149.333 94.08L183.893 128.853C168.107 139.733 154.88 154.027 145.28 170.667H85.3333V213.333H129.92C128.853 220.373 128 227.413 128 234.667V256H85.3333V298.667H128V320C128 327.253 128.853 334.293 129.92 341.333H85.3333V384H145.28C167.467 422.187 208.64 448 256 448C303.36 448 344.533 422.187 366.72 384H426.667V341.333H382.08C383.147 334.293 384 327.253 384 320V298.667H426.667V256H384V234.667C384 227.413 383.147 220.373 382.08 213.333H426.667V170.667ZM298.667 341.333H213.333V298.667H298.667V341.333ZM298.667 256H213.333V213.333H298.667V256Z" fill="#5865F2"/>
</g>
</svg>
