<svg width="512" height="512" viewBox="0 0 512 512" fill="none" xmlns="http://www.w3.org/2000/svg">
<g id="Example Game" clip-path="url(#clip0_107_22)">
<rect width="512" height="512" fill="#4EC1EB"/>
<g id="Discord Characters" clip-path="url(#clip1_107_22)">
<g id="Group 2">
<path id="Vector" d="M266.609 286.55L518.847 296.118V280.835L266.609 271.267V286.55Z" fill="#2A4B9C"/>
<path id="Vector_2" d="M324.42 423.965H330.401V282.735H324.42V423.965Z" fill="#2A4B9C"/>
<path id="Vector_3" d="M288.404 423.965H294.384V282.735H288.404V423.965Z" fill="#2A4B9C"/>
<path id="Vector_4" d="M357.645 423.965H363.625V282.735H357.645V423.965Z" fill="#2A4B9C"/>
<path id="Vector_5" d="M391 423.965H396.981V282.735H391V423.965Z" fill="#BF7887"/>
<path id="Vector_6" d="M424.225 423.965H430.205V282.735H424.225V423.965Z" fill="#2A4B9C"/>
<path id="Vector_7" d="M453.063 423.965H459.044V282.735H453.063V423.965Z" fill="#2A4B9C"/>
<path id="Vector_8" d="M313.654 443.368H551.541L481.904 306.749L428.08 341.833L394.057 348.877L350.067 407.882L313.654 423.83L293.189 415.99L266.609 407.882V443.368H313.654Z" fill="#2A4B9C"/>
<path id="Vector_9" d="M488.945 316.981L442.3 353.394L416.251 398.714L350.067 407.882L394.057 348.877L428.08 341.833L481.904 306.749L488.945 316.981Z" fill="#385ABF"/>
<path id="Vector_10" d="M378.11 373.332H411.734V225.336H378.11V373.332Z" fill="#3D5EBF"/>
<path id="Vector_11" d="M374.123 255.449H415.586V228.604L410.535 223.554H379.173L374.123 228.604V255.449Z" fill="#3D5EBF"/>
<path id="Vector_12" d="M415.586 255.448L410.139 261.03H378.109L374.123 255.448H415.586Z" fill="#B07081"/>
<path id="Vector_13" d="M404.555 315.917H435.255L452.267 332.929L412.797 372.533L401.766 351.27L404.555 315.917Z" fill="#385ABF"/>
<path id="Vector_14" d="M435.256 315.919L424.225 326.816H392.064L403.891 315.121L435.256 315.919Z" fill="#254087"/>
<path id="Vector_15" d="M377.709 242.161L387.941 231.929L398.174 242.161H377.709Z" fill="#3445A1"/>
<path id="Vector_16" d="M387.943 246.547V255.45H374.123L378.109 261.031H396.98V284.557L411.733 281.765V259.437L415.586 255.45H411.2V235.25H409.34V251.064H398.178V246.147L387.943 246.547Z" fill="#2C4EA3"/>
<path id="Vector_17" d="M410.535 223.555V209.735L391.664 194.583L379.173 208.14V223.555H410.535Z" fill="#3D5EBF"/>
<path id="Vector_18" d="M385.019 208.006L379.173 208.14L391.664 194.583L410.535 209.735H401.232L390.07 202.16L385.019 208.006Z" fill="#3445A1"/>
<path id="Vector_19" d="M392.994 201.095H394.192V169.107H392.994V201.095Z" fill="#3445A1"/>
<path id="Vector_20" d="M388.077 198.968H390.601V192.043H388.077V198.968Z" fill="#3445A1"/>
<path id="Vector_21" d="M402.165 189.536H404.555L405.619 207.477H401.102L402.165 189.536Z" fill="#3445A1"/>
<path id="Vector_22" d="M400.702 217.705H401.897V213.507H400.702V217.705Z" fill="#3253B5"/>
<path id="Vector_23" d="M396.714 229.933H398.043V225.416H396.714V229.933Z" fill="#3253B5"/>
<path id="Vector_24" d="M404.159 247.742H405.619V241.684H404.159V247.742Z" fill="#3253B5"/>
<path id="Vector_25" d="M382.761 225.548H383.56V221.814H382.761V225.548Z" fill="#3253B5"/>
<path id="Vector_26" d="M102.881 309.804L98.4945 314.19V327.214H95.038V314.19L99.4242 309.804H102.881Z" fill="#1D3575"/>
<path id="Vector_27" d="M80.4188 309.804L76.0325 314.19V327.214H72.579V314.19L76.9652 309.804H80.4188Z" fill="#1D3575"/>
<path id="Vector_28" d="M58.0911 309.804L53.5737 314.19V327.214H50.1172V314.19L54.5034 309.804H58.0911Z" fill="#1D3575"/>
<path id="Vector_29" d="M127.862 309.804L123.478 314.19V327.214H120.022V314.19L124.408 309.804H127.862Z" fill="#1D3575"/>
<path id="Vector_30" d="M152.981 309.804L148.595 314.19V327.214H145.007V314.19L149.525 309.804H152.981Z" fill="#1D3575"/>
<path id="Vector_31" d="M35.3664 309.804L30.8461 314.19V327.214H27.3926V314.19L31.7788 309.804H35.3664Z" fill="#1D3575"/>
<path id="Vector_32" d="M77.7606 299.705H67.7933V302.59H77.7606V299.705Z" fill="#254087"/>
<path id="Vector_33" d="M97.4301 274.19L101.682 276.449L97.4301 276.848V274.19Z" fill="#254087"/>
<path id="Vector_34" d="M60.085 299.705H57.8263V303.054H60.085V299.705Z" fill="#254087"/>
<path id="Vector_35" d="M283.352 291.729H179.293V224.086L191.918 211.46H270.727L283.352 224.086V291.729Z" fill="#2A4B9C"/>
<path id="Vector_36" d="M274.448 258.24L248.798 232.593L223.148 258.24H274.448Z" fill="#254087"/>
<path id="Vector_37" d="M248.799 269.138V291.731H283.352L273.519 305.685H226.206V364.824L189.129 357.646V301.698L179.293 291.731H190.458V240.964H194.975V280.834H223.149V268.339L248.799 269.138Z" fill="#284794"/>
<path id="Vector_38" d="M191.922 211.459V176.775L239.366 138.634L270.728 172.919V211.459H191.922Z" fill="#2A4B9C"/>
<path id="Vector_39" d="M256.243 172.523L270.728 172.919L239.366 138.634L191.922 176.775H215.31L243.353 157.77L256.243 172.523Z" fill="#254087"/>
<path id="Vector_40" d="M248.135 132.52H241.89V149.889H248.135V132.52Z" fill="#254087"/>
<path id="Vector_41" d="M212.917 126.273H207.07L204.412 171.327H215.575L212.917 126.273Z" fill="#254087"/>
<path id="Vector_42" d="M216.904 186.344H213.981V196.883H216.904V186.344Z" fill="#3D5EBF"/>
<path id="Vector_43" d="M226.47 216.246H223.148V227.608H226.47V216.246Z" fill="#274691"/>
<path id="Vector_44" d="M208.134 257.178H204.412V272.408H208.134V257.178Z" fill="#254087"/>
<path id="Vector_45" d="M261.823 207.207H259.83V216.579H261.823V207.207Z" fill="#274691"/>
<path id="Vector_46" d="M228.2 291.066H162.285L176.77 309.672H213.716L228.2 291.066Z" fill="#254087"/>
<path id="Vector_47" d="M162.285 291.066V285.351H167.997L183.149 270.202H188.596L194.711 264.087H201.755L207.735 270.068H210.128L225.942 286.015H228.2V291.066H162.285Z" fill="#254087"/>
<path id="Vector_48" d="M392.063 326.815V338.245L378.109 348.343L375.585 373.594L403.494 360.969L409.075 364.16L390.734 392.733L417.048 385.823L422.099 388.481L442.299 353.394L447.749 349.008L448.145 328.808L435.255 315.917L424.224 326.815H392.063Z" fill="#2C4EA3"/>
<path id="Vector_49" d="M369.472 97.5672C372.13 90.7912 382.232 85.6064 395.256 88.7978C408.278 91.9861 423.296 98.7651 423.296 114.579C423.296 132.654 415.587 175.313 415.587 175.313L357.112 150.726C357.112 150.726 363.361 113.914 369.472 97.5672Z" fill="#9C4B4B"/>
<path id="Vector_50" d="M386.084 86.4036L384.624 93.0485C384.091 97.3006 389.007 101.818 396.317 103.546C403.626 105.275 412.264 103.147 413.861 98.6296L415.322 92.2499L386.084 86.4036Z" fill="#BA5E41"/>
<path id="Vector_51" d="M416.623 91.9555C417.422 87.1759 411.498 82.2027 403.39 80.8469C395.282 79.4911 388.062 82.2623 387.26 87.0419C386.462 91.8184 392.386 96.7917 400.494 98.1475C408.601 99.5062 415.822 96.7321 416.623 91.9555Z" fill="#C77250"/>
<path id="Vector_52" d="M408.81 83.2163C407.13 82.3581 405.342 81.7324 403.495 81.3539C396.45 79.6257 389.406 81.488 388.077 85.3408C386.748 89.1967 391.134 93.5799 398.31 95.3082C400.756 95.8326 403.268 95.9667 405.753 95.7075L408.81 83.2163Z" fill="#B55341"/>
<path id="Vector_53" d="M209.198 450.679L181.5 511.678H234.314H478.712L486.555 466.358L455.589 428.616L209.198 450.679Z" fill="#9C4B4B"/>
<path id="Vector_54" d="M417.848 459.981L361.098 492.672L350.865 511.677H421.435L459.311 475.795L417.848 459.981Z" fill="#8C3B47"/>
<path id="Vector_55" d="M232.986 116.572C230.194 110.457 220.495 107.668 208.534 110.591C196.573 113.515 183.149 123.747 183.548 132.12C184.213 148.601 194.18 187.672 194.18 187.672L247.739 165.079C247.739 165.079 239.765 131.456 232.986 116.572Z" fill="#9C4B4B"/>
<path id="Vector_56" d="M209.575 123.249C217.402 120.29 222.423 114.387 220.787 110.061C219.155 105.737 211.485 104.629 203.657 107.585C195.829 110.544 190.808 116.446 192.444 120.773C194.077 125.097 201.75 126.205 209.575 123.249Z" fill="#BA5E41"/>
<path id="Vector_57" d="M219.697 106.473L191.123 116.175L192.053 121.092L220.891 111.789L219.697 106.473Z" fill="#BA5E41"/>
<path id="Vector_58" d="M208.438 118.035C216.263 115.079 221.284 109.173 219.651 104.85C218.015 100.523 210.345 99.4145 202.518 102.373C194.69 105.329 189.672 111.235 191.305 115.559C192.941 119.885 200.611 120.994 208.438 118.035Z" fill="#C77250"/>
<path id="Vector_59" d="M214.166 128.548C221.55 125.8 226.326 120.327 224.837 116.328C223.347 112.326 216.153 111.31 208.77 114.057C201.389 116.807 196.612 122.278 198.102 126.28C199.592 130.282 206.785 131.298 214.166 128.548Z" fill="#B55341"/>
<path id="Vector_60" d="M196.041 107.403C193.383 109.531 191.655 112.054 191.655 114.447C191.655 116.837 194.977 119.763 199.897 119.763L196.041 107.403Z" fill="#C77250"/>
<path id="Vector_61" d="M129.059 427.019C145.353 427.019 158.562 413.812 158.562 397.516C158.562 381.223 145.353 368.013 129.059 368.013C112.766 368.013 99.5566 381.223 99.5566 397.516C99.5566 413.812 112.766 427.019 129.059 427.019Z" fill="#BA7448"/>
<path id="Vector_62" opacity="0.3" d="M143.944 372L122.281 368.812C119.2 369.449 116.27 370.668 113.642 372.399L124.808 378.514L157.499 389.676C156.524 385.978 154.823 382.513 152.496 379.476C150.168 376.443 147.263 373.901 143.944 372Z" fill="#B5368A"/>
<path id="Vector_63" opacity="0.3" d="M158.562 397.517C158.562 405.342 155.454 412.848 149.921 418.378C144.387 423.912 136.884 427.02 129.059 427.02C121.234 427.02 113.728 423.912 108.198 418.378C102.665 412.848 99.5566 405.342 99.5566 397.517C105.552 401.194 112.456 403.125 119.491 403.098C126.661 403.059 133.684 401.042 139.781 397.267C145.877 393.491 150.812 388.104 154.045 381.703C157.033 386.432 158.601 391.921 158.562 397.517Z" fill="#B5368A"/>
<path id="Vector_64" d="M166.676 317.864L119.342 310.027L110.877 361.163L158.21 368.997L166.676 317.864Z" fill="#BA7448"/>
<path id="Vector_65" d="M161.746 366.347L108.122 357.47C107.106 357.303 106.15 357.988 105.983 359.002L104.097 370.396C103.927 371.409 104.612 372.369 105.628 372.536L159.252 381.412C160.265 381.582 161.225 380.894 161.392 379.881L163.278 368.486C163.445 367.473 162.76 366.517 161.746 366.347Z" fill="#BA7448"/>
<path id="Vector_66" d="M173.581 318.178L177.035 297.448L115.902 287.346L112.448 307.945C112.383 308.383 112.466 308.827 112.684 309.212C112.898 309.599 113.238 309.9 113.643 310.073C132.487 316.038 152.091 319.259 171.853 319.641C172.261 319.62 172.652 319.468 172.965 319.203C173.277 318.938 173.495 318.577 173.581 318.178Z" fill="#BF6347"/>
<path id="Vector_67" opacity="0.3" d="M137.699 324.156L124.275 363.495L158.164 369.077L166.272 319.505H171.853C172.261 319.487 172.652 319.332 172.965 319.067C173.277 318.805 173.495 318.444 173.581 318.045L174.246 314.457L172.917 296.647L115.902 287.213L112.448 307.812C112.383 308.247 112.466 308.694 112.684 309.079C112.898 309.463 113.238 309.767 113.643 309.937L118.959 311.531L118.03 317.246L137.699 324.156Z" fill="#B5368A"/>
<path id="Vector_68" d="M94.5067 277.112L107.397 301.698H169.195L176.37 293.99C176.716 282.014 176.272 270.026 175.041 258.107C172.383 231.397 167.201 209.334 162.949 206.411L162.019 206.012H112.448L108.062 210.398L94.5067 277.112Z" fill="#E5834E"/>
<path id="Vector_69" d="M97.1659 227.941L146.737 232.193" stroke="#452B3C" stroke-width="16.9529" stroke-linecap="round" stroke-linejoin="round"/>
<path id="Vector_70" opacity="0.23" d="M143.28 211.462L103.011 293.459L107.398 301.698H169.195L174.645 295.852L143.28 211.462Z" fill="#B53636"/>
<path id="Vector_71" d="M87.7288 260.766L102.482 272.991C105.032 275.101 108.033 276.603 111.251 277.378" stroke="#452B3C" stroke-width="16.9529" stroke-linecap="round" stroke-linejoin="round"/>
<path id="Vector_72" d="M111.25 277.379L137.964 283.625" stroke="#452B3C" stroke-width="16.9529" stroke-linecap="round" stroke-linejoin="round"/>
<path id="Vector_73" d="M212.522 429.015C182.086 403.1 160.158 376.786 145.009 336.782C131.585 301.433 133.179 247.61 135.572 222.758C135.977 217.418 138.236 212.389 141.952 208.536C165.739 183.419 206.806 145.013 265.681 128.666C331.331 110.325 404.69 111.654 510.079 177.969C521.375 185.547 532.007 206.146 524.167 262.628C516.324 319.109 481.771 387.683 422.631 429.015C388.876 452.537 295.848 499.85 212.522 429.015Z" fill="#E08645"/>
<path id="Vector_74" d="M187.135 309.142H180.491L173.846 317.513L176.37 328.943L186.471 337.182H193.116L200.291 329.873L197.767 318.445L187.135 309.142Z" fill="#B85744"/>
<path id="Vector_75" d="M510.343 185.813L485.226 177.97L478.713 185.813L506.755 193.519L510.343 185.813Z" fill="#E5924B"/>
<path id="Vector_76" d="M512.072 250.133L461.97 241.096C436.186 284.287 404.69 306.749 368.012 334.392C331.331 362.033 329.203 366.818 316.181 404.164C303.157 441.506 232.188 421.706 232.188 421.706C232.188 421.706 219.166 397.519 212.521 382.501C205.876 367.483 203.483 362.831 181.29 349.941C164.145 339.973 149.791 332 139.293 317.116C140.721 323.799 142.631 330.373 145.008 336.782C160.158 376.786 182.086 403.1 212.521 429.015C295.847 499.85 388.876 452.537 422.631 429.015C478.713 389.81 512.602 326.418 522.704 271.796L512.072 250.133Z" fill="#D67342"/>
<path id="Vector_77" d="M282.159 463.569C297.04 466.462 312.267 467.132 327.344 465.562L350.866 421.706L309.403 431.009L282.159 463.569Z" fill="#BF6347"/>
<path id="Vector_78" d="M377.315 304.755H384.624L394.457 314.058L395.122 326.948L386.218 336.117H378.775L368.676 327.878L368.012 315.119L377.315 304.755Z" fill="#B85744"/>
<path id="Vector_79" d="M445.622 226.347C427.815 281.631 351.398 323.627 263.951 327.745C195.774 330.937 156.834 283.624 164.677 230.998C173.181 174.782 245.211 124.015 327.077 121.223C411.202 118.166 464.758 167.073 445.622 226.347Z" fill="#E5924B"/>
<path id="Vector_80" d="M491.207 144.879L446.952 144.081L427.282 229.135L428.611 234.585C428.695 234.97 428.87 235.33 429.127 235.631C429.38 235.935 429.708 236.167 430.074 236.314C445.426 243.274 461.18 249.308 477.253 254.386C477.447 254.448 477.649 254.463 477.852 254.433C478.051 254.404 478.242 254.326 478.409 254.213C478.576 254.097 478.713 253.945 478.814 253.766C478.913 253.59 478.969 253.394 478.981 253.191C480.975 222.225 487.885 186.477 493.332 167.871C492.667 159.897 491.207 144.879 491.207 144.879Z" fill="#C46548"/>
<path id="Vector_81" d="M427.282 229.136C428.081 197.109 438.048 155.511 444.16 139.564C444.216 139.436 444.309 139.328 444.428 139.257C444.547 139.185 444.687 139.152 444.824 139.164C460.405 139.909 475.912 141.819 491.207 144.88C481.904 181.826 476.588 209.07 474.33 232.059H474.196C453.862 229.8 427.282 229.136 427.282 229.136Z" fill="#F0AA56"/>
<path id="Vector_82" d="M448.015 195.911H458.912L467.416 205.082L466.356 217.574L456.12 226.477H445.357L436.32 218.637L437.514 206.012L448.015 195.911Z" fill="#B85744"/>
<path id="Vector_83" d="M474.196 232.192C453.862 229.8 427.282 229.135 427.282 229.135L428.611 234.585C428.695 234.972 428.87 235.33 429.127 235.634C429.38 235.935 429.708 236.167 430.074 236.313C445.426 243.274 461.18 249.308 477.253 254.386C477.521 254.463 477.807 254.454 478.069 254.356C478.332 254.261 478.558 254.088 478.713 253.855L474.196 232.192Z" fill="#BA5E41"/>
<path id="Vector_84" d="M451.868 208.804L444.558 244.686C438.477 265.947 427.404 285.447 412.264 301.567L395.121 320.039H384.224" stroke="#331D2C" stroke-width="16.9529" stroke-linecap="round" stroke-linejoin="round"/>
<path id="Vector_85" d="M414.392 155.91C397.779 152.054 377.311 152.319 377.311 152.319L199.228 231.793C199.228 231.793 198.167 233.786 197.899 239.501C197.634 245.216 203.88 267.544 228.466 283.092C253.052 298.641 254.649 297.711 279.765 291.597C304.882 285.485 343.822 270.997 359.638 263.023C375.452 255.05 400.968 238.437 410.804 234.319C420.637 230.198 421.168 230.997 422.497 225.282C423.826 219.566 428.876 177.969 428.876 173.317C428.876 168.666 430.87 159.762 414.392 155.91Z" fill="#EDA14E"/>
<path id="Vector_86" d="M513.401 180.628C502.904 180.097 491.339 210.664 487.62 248.939C483.899 287.214 489.48 318.975 500.111 319.64C505.293 319.905 510.609 312.861 515.261 301.034C519.337 288.513 522.314 275.662 524.167 262.628C531.208 211.859 523.369 190.065 513.401 180.628Z" fill="#9C4B4B"/>
<path id="Vector_87" d="M137.699 347.017L108.462 306.883L74.1736 291.865L20.0848 413.597L56.2324 428.615H82.9461L127.068 396.985L137.699 347.017Z" fill="#B85744"/>
<path id="Vector_88" d="M74.1733 291.865H45.4662L1.74392 328.012L-8.88794 377.849L20.0844 413.597H48.7886L92.779 381.97L103.411 331.999L74.1733 291.865Z" fill="#CC704B"/>
<path id="Vector_89" d="M-8.88794 377.981L20.0844 413.598H48.7886L92.779 381.967L102.88 334.658L-8.88794 377.981Z" fill="#A84B3B"/>
<path id="Vector_90" d="M65.6681 299.174H40.2834L1.74306 331.069L-7.55981 375.057L17.8249 406.422H43.2066L82.0122 378.647L91.315 334.657L65.6681 299.174Z" fill="#B85744"/>
<path id="Vector_91" d="M90.2538 339.575L-5.96594 376.92L17.8246 406.423H43.2062L82.0118 378.648L90.2538 339.575Z" fill="#8C3B47"/>
<path id="Vector_92" d="M61.5472 308.478H40.5487L8.52212 334.924L0.813477 371.471L21.943 397.52H42.9415L75.2363 374.394L82.9449 337.981L61.5472 308.478Z" fill="#73303A"/>
<path id="Vector_93" d="M265.676 128.666C241.224 135.585 218.06 146.449 197.103 160.827C196.039 168.401 194.445 181.691 192.186 206.277C191.257 216.379 193.912 228.87 207.866 247.61C212.517 253.721 239.895 274.854 257.571 277.244C275.247 279.636 301.294 276.183 331.994 261.43C365.353 245.482 378.509 230.065 383.959 222.755C390.869 213.322 392.993 200.297 392.463 187.141C392.198 175.976 390.469 146.208 389.54 138.899C388.854 133.562 387.233 128.389 384.754 123.615C340.099 114.444 301.693 118.565 265.676 128.666Z" fill="#C26E4F"/>
<path id="Vector_94" d="M291.86 215.715L240.694 260.37L238.832 270.468C245.346 273.925 251.857 276.583 257.572 277.378C270.462 279.106 287.873 277.777 308.472 271.133L291.86 215.715Z" fill="#B05A48"/>
<path id="Vector_95" d="M193.247 194.716C192.982 198.304 192.586 202.159 192.186 206.412C191.257 216.513 193.912 229.004 207.866 247.744L209.993 250.134L226.206 226.081L198.697 191.394L193.247 194.716Z" fill="#F7C251"/>
<path id="Vector_96" d="M388.875 185.414C388.476 174.648 386.882 145.544 385.818 138.369C384.355 127.868 380.902 120.294 373.592 114.179C366.283 108.068 352.859 97.4359 338.505 92.3852C324.155 87.3344 319.104 87.7337 288.669 91.0562C273.254 92.6504 253.32 103.681 241.359 111.256C229.398 118.831 214.115 135.976 206.671 144.215C201.889 149.397 199.496 152.454 198.566 159.764C197.634 167.073 196.439 180.232 194.845 203.885C194.18 213.721 196.969 225.682 210.923 243.755C215.444 249.604 242.154 269.67 259.166 271.931C276.177 274.19 301.163 270.999 330.666 256.913C362.561 241.761 375.32 226.877 380.502 219.833C385.684 212.792 389.275 198.173 388.875 185.414Z" fill="#74606B"/>
<path id="Vector_97" d="M243.752 235.914L245.477 246.546C245.507 246.733 245.581 246.906 245.701 247.055C245.817 247.201 245.972 247.315 246.148 247.383C246.323 247.449 246.514 247.469 246.702 247.44C246.887 247.41 247.059 247.329 247.205 247.21L255.179 239.502C255.298 239.367 255.382 239.201 255.418 239.025C255.456 238.846 255.447 238.664 255.394 238.491C255.343 238.319 255.245 238.161 255.114 238.036C254.983 237.91 254.825 237.821 254.649 237.776L245.081 234.85C244.92 234.767 244.738 234.734 244.559 234.749C244.38 234.767 244.211 234.838 244.068 234.948C243.928 235.062 243.823 235.214 243.767 235.384C243.71 235.556 243.704 235.741 243.752 235.914Z" fill="#7A6574"/>
<path id="Vector_98" d="M224.213 152.323L340.368 106.605L355.651 100.889C350.255 97.4508 344.51 94.5992 338.505 92.3852C325.085 87.7338 319.104 87.7338 288.669 91.0562C273.254 92.6504 253.32 103.682 241.359 111.256C229.398 118.831 214.115 135.976 206.671 144.215C201.889 149.397 199.496 152.454 198.566 159.764L198.167 163.486L224.213 152.323Z" fill="#947A88"/>
<path id="Vector_99" opacity="0.85" d="M237.239 209.735L219.298 177.97L196.97 219.303C199.232 226.079 203.484 234.053 210.924 243.755C214.318 247.348 218.058 250.596 222.09 253.457L237.239 209.735Z" fill="#95665C"/>
<path id="Vector_100" d="M340.369 156.44L388.212 172.257C387.547 159.364 386.618 143.416 385.819 138.368C385.286 132.489 383.423 126.807 380.369 121.756L343.292 116.175L340.369 156.44Z" fill="#8E6371"/>
<path id="Vector_101" d="M380.501 219.832C382.766 216.7 384.557 213.252 385.817 209.599L335.981 180.627L286.543 213.187L293.718 269.802C306.499 266.972 318.898 262.645 330.665 256.912C362.56 241.76 375.32 226.876 380.501 219.832Z" fill="#735765"/>
<path id="Vector_102" d="M254.114 270.868C255.774 271.335 257.461 271.69 259.165 271.931L262.356 272.197L269.001 228.871L262.356 229.139L254.114 270.868Z" fill="#574555"/>
<path id="Vector_103" d="M223.284 130.924C217.304 135.707 214.246 141.821 213.451 151.124C212.652 160.427 211.723 188.866 213.451 199.367C215.179 209.865 226.207 220.365 246.541 228.735C266.875 237.109 277.242 230.729 305.416 219.167C333.589 207.606 344.755 197.108 347.544 187.671C350.336 178.234 355.118 142.486 355.252 132.918C355.517 115.108 355.917 106.204 346.614 101.022C336.435 95.3638 325.031 92.2619 313.389 91.9848C301.429 91.9848 280.829 93.579 269.533 99.5594C258.237 105.54 235.245 121.356 223.284 130.924Z" fill="#A18893"/>
<path id="Vector_104" d="M268.603 231.792C275.248 230.863 282.292 228.47 291.196 225.016L294.917 218.637L272.325 227.94L268.603 231.792Z" fill="#D1BCC5"/>
<path id="Vector_105" d="M261.823 232.193C263.418 233.656 264.481 234.321 265.679 234.321C266.874 234.321 267.405 231.928 268.602 231.794L272.324 227.941H266.475L261.823 232.193Z" fill="#574555"/>
<path id="Vector_106" d="M225.942 132.254C220.096 136.905 217.173 142.752 216.508 151.658C215.844 160.562 214.78 187.806 216.508 197.773C218.233 207.74 228.6 217.839 248.136 225.813C265.68 233.122 277.507 227.806 304.486 216.778C331.465 205.747 342.228 195.514 344.886 186.608C347.544 177.704 352.064 143.285 352.195 134.247C352.46 117.105 352.86 108.597 343.822 103.681C334.105 98.2338 323.196 95.2689 312.061 95.0425C300.63 95.0425 280.964 96.5055 270.064 102.218C259.167 107.933 237.373 123.085 225.942 132.254Z" fill="#806A76"/>
<path id="Vector_107" d="M259.3 187.408L265.679 128.668L242.288 120.029C236.043 124.416 230.193 128.799 225.941 132.255C221.689 135.712 217.172 142.753 216.507 151.66C216.108 156.841 215.575 168.537 215.575 179.3L259.3 187.408Z" fill="#665462"/>
<path id="Vector_108" d="M230.327 216.245L259.3 200.166L254.514 193.521L219.296 204.949C222.148 209.442 225.906 213.289 230.327 216.245Z" fill="#917B85"/>
<path id="Vector_109" d="M309.402 189.536L274.318 206.014L262.358 229.14C273.785 229.539 285.216 224.619 304.486 216.78C316.846 211.595 325.749 206.812 332.129 202.161L309.402 189.536Z" fill="#917B85"/>
<path id="Vector_110" d="M289.867 198.704L284.285 224.753C289.998 222.759 296.643 219.967 304.485 216.779C312.325 213.588 317.242 211.064 322.161 208.406L309.536 196.046L298.636 194.583L289.867 198.704Z" fill="#A68D8D"/>
<path id="Vector_111" d="M253.319 176.244L333.722 150.725L352.194 121.357C351.795 112.453 350.2 107.137 343.821 103.681C334.104 98.2338 323.195 95.2689 312.059 95.0425C300.629 95.0425 280.962 96.5055 270.062 102.218C259.165 107.933 237.371 123.085 225.941 132.254C220.095 136.905 217.171 142.752 216.507 151.658C216.507 152.323 216.373 153.252 216.373 154.182L253.319 176.244Z" fill="#665462"/>
<path id="Vector_112" d="M243.485 170.13C244.814 181.957 247.341 198.039 248.27 201.76C249.2 205.479 256.11 209.734 263.419 212.258C270.729 214.782 275.514 215.315 289.334 210.664C303.158 206.013 317.907 199.102 322.827 195.78C327.744 192.458 330.533 188.736 332.925 179.564C335.318 170.395 339.305 153.119 339.97 145.809C340.899 134.248 342.494 126.539 327.079 121.089C311.662 115.642 289.734 117.767 276.977 126.539C264.218 135.312 249.069 149.662 245.877 154.713C242.689 159.764 242.954 164.814 243.485 170.13Z" fill="#574555"/>
<path id="Vector_113" d="M246.142 169.996C247.471 181.027 249.732 196.176 250.662 199.767C251.592 203.355 258.102 207.341 265.016 209.734C271.926 212.124 276.443 212.657 289.467 208.137C302.492 203.62 316.446 197.24 321.098 194.183C325.749 191.129 328.407 187.538 330.666 178.768C332.925 169.996 336.646 153.917 337.311 146.873C338.24 135.976 339.703 128.667 325.216 123.616C310.731 118.565 289.867 120.559 277.772 128.667C265.68 136.772 251.458 150.461 248.403 155.246C245.346 160.029 245.611 164.945 246.142 169.996Z" fill="#D48A51"/>
<path id="Vector_114" d="M330.666 178.769C331.465 175.313 332.66 170.662 333.723 165.745L278.97 164.416L256.774 186.877L255.048 204.819C258.147 206.875 261.497 208.528 265.016 209.735C271.926 212.128 276.443 212.658 289.468 208.141C302.492 203.621 316.447 197.241 321.098 194.187C325.749 191.13 328.407 187.542 330.666 178.769Z" fill="#B07343"/>
<path id="Vector_115" d="M305.28 202.026C310.748 199.824 316.034 197.202 321.097 194.186L323.221 192.592L287.607 163.221L305.28 202.026Z" fill="#AD5647"/>
<path id="Vector_116" d="M265.017 209.735C269.784 211.66 275.041 212.032 280.032 210.799L287.609 163.221L257.308 206.278C259.775 207.646 262.353 208.802 265.017 209.735Z" fill="#AD5647"/>
<path id="Vector_117" d="M337.709 136.64C337.176 131.059 334.518 126.938 325.215 123.615C322.965 122.811 320.656 122.188 318.305 121.756L287.607 163.219L337.709 136.64Z" fill="#C46548"/>
<path id="Vector_118" d="M331.329 176.244C332.793 170.13 334.786 161.891 335.981 155.112L287.607 163.22L331.329 176.244Z" fill="#C46548"/>
<path id="Vector_119" d="M292.524 164.679L331.33 176.24C331.464 175.445 331.729 174.646 331.86 173.85C332.102 173.159 332.278 172.447 332.394 171.723C332.394 171.592 332.525 171.458 332.525 171.324C332.641 170.602 332.82 169.89 333.058 169.199C333.058 168.934 333.189 168.534 333.189 168.266L333.589 166.541C333.717 166.344 333.764 166.106 333.723 165.877L292.524 164.679Z" fill="#AD5647"/>
<path id="Vector_120" opacity="0.49" d="M256.377 192.456L272.324 203.487L281.758 200.031L282.557 195.114L302.757 196.443L299.568 189.533L317.641 187.936L308.737 180.626L322.691 173.585L314.053 171.058L322.161 157.503L313.523 158.967L317.775 132.387L287.608 163.219L292.524 164.679L256.377 192.456Z" fill="#822A8C"/>
<path id="Vector_121" d="M322.557 132.918C322.292 126.539 319.899 105.144 317.11 95.4419C314.318 85.7397 305.814 78.2962 286.943 77.7658C272.19 77.2354 247.738 74.1782 228.468 85.6056L232.72 177.838L271.791 193.521C282.157 189.534 290.531 185.812 290.531 185.812L303.421 156.31L319.235 142.621C321.362 140.627 322.956 139.298 322.557 132.918Z" fill="#CC704B"/>
<path id="Vector_122" d="M295.583 140.227L322.428 130.793C321.721 121.836 320.568 112.921 318.971 104.08L280.299 116.571L295.583 140.227Z" fill="#BA644B"/>
<path id="Vector_123" d="M286.943 77.7658C272.19 77.2354 247.738 74.1782 228.468 85.6056L229.529 107.403L264.216 108.198L292.923 95.4418C292.923 95.4418 296.776 95.0426 302.891 95.0426C309.002 95.0426 310.865 95.1766 315.516 91.4549C311.66 83.7462 303.156 78.2962 286.943 77.7658Z" fill="#DB7C56"/>
<path id="Vector_124" d="M273.785 158.7L252.122 185.679L271.792 193.522C282.158 189.535 290.531 185.813 290.531 185.813L303.422 156.311L307.144 153.119L273.785 158.7Z" fill="#B55A4A"/>
<path id="Vector_125" d="M321.497 140.227L300.499 149.93L292.391 143.684L278.97 164.414L303.422 156.309L319.236 142.62C320.091 141.923 320.851 141.118 321.497 140.227Z" fill="#9E472F"/>
<path id="Vector_126" d="M222.619 91.1856C217.958 98.9002 214.38 107.217 211.987 115.906C209.463 125.075 209.329 130.39 209.198 138.099C209.064 151.124 209.728 158.299 210.259 160.427C210.792 162.554 211.722 163.219 216.904 166.672L223.152 170.924C223.59 171.145 223.924 171.526 224.082 171.988C226.478 179.345 229.454 186.503 232.985 193.386C233.078 193.6 233.224 193.785 233.412 193.925C233.596 194.065 233.817 194.155 234.049 194.181C242.422 195.379 253.054 195.645 271.791 193.517C271.791 193.517 277.506 178.234 281.627 163.883C281.705 163.496 281.863 163.129 282.092 162.81C282.322 162.489 282.614 162.22 282.956 162.021C289.467 157.903 297.575 152.053 300.498 149.929C300.829 149.702 301.106 149.404 301.312 149.062C301.52 148.719 301.648 148.332 301.693 147.935C302.092 136.639 299.834 120.158 297.84 108.996C295.847 97.8305 292.39 88.2624 282.956 84.4096C273.519 80.5538 266.874 79.8893 249.598 80.4227C239.1 80.8219 227.27 83.4799 222.619 91.1856Z" fill="#E5924B"/>
<path id="Vector_127" d="M226.075 134.513C226.871 141.957 224.877 147.273 222.219 148.337C219.561 149.397 215.843 145.279 214.645 135.976C213.051 124.147 216.638 120.559 219.561 120.559C222.487 120.559 225.277 126.939 226.075 134.513Z" fill="#947A88"/>
<path id="Vector_128" d="M221.421 148.528C224.186 148.179 225.655 141.755 224.698 134.183C223.742 126.609 220.72 120.754 217.955 121.102C215.187 121.454 213.721 127.875 214.678 135.45C215.634 143.021 218.653 148.877 221.421 148.528Z" fill="#74606B"/>
<path id="Vector_129" d="M220.873 146.322C222.619 146.101 223.397 140.845 222.604 134.582C221.814 128.321 219.755 123.422 218.006 123.643C216.26 123.863 215.485 129.12 216.275 135.383C217.068 141.644 219.124 146.542 220.873 146.322Z" fill="#4A3B48"/>
<path id="Vector_130" d="M250.397 133.448C249.598 141.821 253.719 148.999 259.035 148.865C267.274 148.6 270.463 141.69 271.127 133.317C271.792 124.944 268.603 117.634 262.09 117.9C255.579 118.165 251.193 125.078 250.397 133.448Z" fill="#947A88"/>
<path id="Vector_131" d="M269.425 135.093C270.474 126.791 267.134 119.532 261.964 118.88C256.794 118.227 251.752 124.428 250.703 132.73C249.655 141.028 252.995 148.29 258.165 148.943C263.335 149.595 268.376 143.394 269.425 135.093Z" fill="#74606B"/>
<path id="Vector_132" d="M266.734 134.957C267.616 127.966 265.205 121.905 261.344 121.417C257.485 120.928 253.641 126.202 252.759 133.193C251.874 140.183 254.288 146.244 258.146 146.733C262.005 147.218 265.852 141.947 266.734 134.957Z" fill="#4A3B48"/>
<path id="Vector_133" d="M426.883 345.424C410.005 354.194 381.301 369.346 348.342 380.109C347.943 380.109 347.677 380.508 347.543 380.773C339.438 410.675 327.609 443.9 304.617 460.646L291.86 467.422C364.954 478.054 429.01 439.117 468.215 396.056C468.215 396.056 456.785 374.927 427.681 345.555C427.58 345.448 427.449 345.379 427.306 345.353C427.16 345.329 427.014 345.356 426.883 345.424Z" fill="#BF6347"/>
<path id="Vector_134" d="M174.51 171.724L125.337 262.893L134.506 278.042C144.342 272.062 167.6 261.296 167.6 261.296C167.6 240.032 170.922 204.15 179.295 173.851L174.51 171.724Z" fill="#C46548"/>
<path id="Vector_135" d="M174.51 171.724C164.143 209.6 162.415 234.32 160.821 252.127C145.937 255.849 125.337 262.893 125.337 262.893C127.942 238.205 132.292 213.736 138.362 189.665C149.828 182.573 161.929 176.569 174.51 171.724Z" fill="#F0AA56"/>
<path id="Vector_136" d="M142.481 228.605H149.126L156.969 235.915L156.17 245.882L147.267 253.057H140.756L132.514 246.812L133.178 236.713L142.481 228.605Z" fill="#B85744"/>
<path id="Vector_137" d="M517.781 248.561C521.267 213.65 518.705 184.811 512.057 184.147C505.412 183.485 497.2 211.248 493.713 246.159C490.23 281.067 492.793 309.905 499.441 310.57C506.085 311.234 514.298 283.472 517.781 248.561Z" fill="#4D2C42"/>
<path id="Vector_138" d="M212.52 429.016C229.263 444.165 255.843 455.729 255.843 455.729C233.915 438.718 226.075 426.358 197.502 379.578C196.834 378.434 195.803 377.546 194.579 377.052C173.58 368.282 150.454 349.942 150.454 349.942L146.735 357.781L212.52 429.016Z" fill="#BF6347"/>
<path id="Vector_139" d="M194.31 376.92C173.446 368.148 150.454 349.942 150.454 349.942L146.735 357.781L189.528 389.945L194.31 376.92Z" fill="#D98068"/>
<path id="Vector_140" d="M293.663 466.23C317.59 457.947 328.07 425.479 317.072 393.712C306.071 361.947 277.757 342.913 253.829 351.199C229.902 359.486 219.419 391.954 230.42 423.718C241.419 455.482 269.735 474.517 293.663 466.23Z" fill="#74606B"/>
<path id="Vector_141" d="M234.316 375.59L295.05 389.145L304.752 371.603C294.254 358.445 280.032 349.94 265.547 349.94C260.172 349.917 254.859 351.1 249.999 353.397L234.316 375.59Z" fill="#8A727C"/>
<path id="Vector_142" d="M265.546 349.942C263.767 349.939 261.989 350.07 260.231 350.341L255.18 364.161L279.236 375.592L281.759 353.398C276.649 351.148 271.131 349.971 265.546 349.942Z" fill="#CF97A5"/>
<path id="Vector_143" d="M146.735 357.784C150.105 364.968 153.923 371.937 158.163 378.648C164.942 389.28 189.263 418.252 206.936 431.673C224.612 445.097 252.92 457.987 252.92 457.987L255.843 455.729C255.843 455.729 234.579 440.845 223.283 428.485C211.986 416.124 197.901 393.797 193.381 385.823C193.041 385.323 192.585 384.911 192.052 384.628C176.217 376.973 161.056 367.992 146.735 357.784Z" fill="#B35146"/>
<path id="Vector_144" d="M293.205 467.047C314.418 458.042 321.504 426.915 309.028 397.526C296.555 368.136 269.242 351.61 248.029 360.615C226.813 369.62 219.727 400.747 232.203 430.136C244.68 459.526 271.989 476.052 293.205 467.047Z" fill="#63535C"/>
<path id="Vector_145" d="M292.168 462.707C311.438 454.567 317.636 425.66 306.012 398.142C294.388 370.624 269.343 354.914 250.073 363.055C230.803 371.196 224.608 400.102 236.232 427.621C247.856 455.139 272.898 470.848 292.168 462.707Z" fill="#544650"/>
<path id="Vector_146" d="M310.465 414.531C305.149 385.823 283.087 362.301 261.159 362.036C256.817 361.92 252.509 362.849 248.602 364.745C244.693 366.64 241.296 369.45 238.7 372.933C232.851 382.236 230.592 395.657 233.384 410.544C238.831 439.117 260.894 462.639 282.688 463.038C287.062 463.137 291.395 462.189 295.328 460.27C299.258 458.348 302.67 455.517 305.28 452.007C311.13 442.704 313.254 429.415 310.465 414.531Z" fill="url(#paint0_linear_107_22)"/>
<path id="Vector_147" d="M468.215 396.056C468.215 396.056 459.177 385.293 430.869 354.992C430.887 354.92 430.878 354.846 430.84 354.783C430.801 354.721 430.741 354.676 430.67 354.658C430.601 354.64 430.527 354.652 430.464 354.691C430.402 354.727 430.357 354.786 430.339 354.858C406.552 368.946 381.167 380.108 348.208 392.069C347.925 392.218 347.692 392.451 347.543 392.734C342.811 405.445 336.893 417.68 329.867 429.281C323.356 441.906 315.117 452.937 304.617 460.646L291.86 467.422C364.954 478.053 429.01 439.117 468.215 396.056Z" fill="#B35146"/>
<path id="Vector_148" d="M575.332 300.635L570.282 280.17L505.957 295.983L510.877 316.317C510.996 316.749 511.255 317.131 511.619 317.396C511.979 317.661 512.42 317.795 512.87 317.78C533.857 315.456 554.453 310.408 574.135 302.762C574.543 302.59 574.879 302.289 575.097 301.904C575.312 301.52 575.395 301.073 575.332 300.635Z" fill="#B05A48"/>
<path id="Vector_149" opacity="0.49" d="M568.688 304.756L574.135 302.763C574.543 302.59 574.879 302.289 575.097 301.904C575.312 301.52 575.395 301.073 575.332 300.635L574.4 296.782L542.373 301.964L539.45 287.745L505.957 295.984L510.877 316.318C510.996 316.75 511.255 317.131 511.619 317.396C511.979 317.661 512.42 317.796 512.87 317.781L518.717 316.982L533.336 376.655L555.264 371.339L549.149 342.367C554.998 340.239 563.637 331.07 563.637 331.07V315.787L573.205 323.496L568.688 304.756Z" fill="#B5368A"/>
<path id="Vector_150" d="M527.62 343.826H469.678L428.745 384.759V442.704L469.678 483.634H527.62L568.553 442.704V384.759L527.62 343.826Z" fill="#B85744"/>
<path id="Vector_151" d="M568.553 442.705L541.708 436.46L507.554 474.068V483.639H527.62L568.553 442.705Z" fill="#A84B3B"/>
<path id="Vector_152" d="M396.98 334.659L384.355 325.356L383.294 315.919L396.98 299.575L416.519 293.46C417.529 293.171 418.595 293.115 419.629 293.299C420.666 293.484 421.647 293.901 422.499 294.524L424.358 295.719C425.214 296.381 425.908 297.224 426.394 298.192C426.876 299.158 427.136 300.221 427.15 301.3L431.137 300.239C432.025 300.007 432.952 299.98 433.852 300.165C434.752 300.35 435.595 300.737 436.319 301.3L465.691 323.097V334.659H396.98Z" fill="#B85744"/>
<path id="Vector_153" opacity="0.49" d="M505.028 361.368H464.363L435.79 389.941V435.26L464.363 462.77H505.028L533.601 432.868V391.404L505.028 361.368Z" fill="#B56499"/>
<path id="Vector_154" d="M475.79 317.781H417.848V487.226H475.79V317.781Z" fill="#8C3B47"/>
<path id="Vector_155" d="M475.789 487.226L516.323 490.548V337.847C516.326 337.659 516.279 337.475 516.183 337.311C516.091 337.147 515.957 337.013 515.793 336.917L475.789 317.781V487.226Z" fill="#9C4B4B"/>
<path id="Vector_156" d="M459.31 325.355H419.706V475.848H459.31V325.355Z" fill="#4D2C42"/>
<path id="Vector_157" d="M444.823 428.616H395.121V421.706H455.589L444.823 428.616Z" fill="#914242"/>
<path id="Vector_158" d="M444.823 372.8H395.121V366.021H455.589L444.823 372.8Z" fill="#914242"/>
<path id="Vector_159" d="M390.071 481.775L377.579 481.111C377.216 481.078 376.876 480.908 376.629 480.637C376.385 480.369 376.248 480.014 376.251 479.648V465.428H408.81V482.839C408.804 483.322 408.691 483.799 408.474 484.234C408.256 484.666 407.946 485.044 407.562 485.339C407.178 485.634 406.731 485.837 406.257 485.932C405.783 486.03 405.291 486.016 404.823 485.896L390.071 481.775Z" fill="#73303A"/>
<path id="Vector_160" d="M408.277 429.147L377.18 431.939C377.064 431.96 376.948 431.954 376.835 431.921C376.721 431.891 376.617 431.834 376.528 431.757C376.438 431.682 376.37 431.587 376.319 431.48C376.272 431.376 376.248 431.259 376.251 431.14V413.732H408.811V428.482C408.814 428.64 408.763 428.792 408.665 428.911C408.566 429.033 408.432 429.117 408.277 429.147Z" fill="#73303A"/>
<path id="Vector_161" d="M395.122 429.281C398.206 429.281 400.703 428.566 400.703 427.687C400.703 426.805 398.206 426.093 395.122 426.093C392.038 426.093 389.541 426.805 389.541 427.687C389.541 428.566 392.038 429.281 395.122 429.281Z" fill="#4D2C42"/>
<path id="Vector_162" d="M408.277 373.862L377.18 376.785C376.933 376.785 376.697 376.687 376.522 376.514C376.349 376.338 376.25 376.103 376.25 375.856V358.445H408.81V373.198C408.813 373.352 408.763 373.504 408.664 373.627C408.566 373.746 408.429 373.829 408.277 373.862Z" fill="#73303A"/>
<path id="Vector_163" d="M395.122 374.393C398.206 374.393 400.703 373.681 400.703 372.799C400.703 371.92 398.206 371.205 395.122 371.205C392.038 371.205 389.541 371.92 389.541 372.799C389.541 373.681 392.038 374.393 395.122 374.393Z" fill="#4D2C42"/>
<path id="Vector_164" d="M455.589 327.747H395.121V366.034H455.589V327.747Z" fill="#A15240"/>
<path id="Vector_165" d="M455.589 428.616H395.121V466.904H455.589V428.616Z" fill="#A15240"/>
<path id="Vector_166" d="M455.589 372.799H395.121V421.652H455.589V372.799Z" fill="#A15240"/>
<path id="Vector_167" opacity="0.1" d="M416.12 372.799L439.508 421.706H455.59V372.799H416.12Z" fill="#822A8C"/>
<path id="Vector_168" d="M413.062 436.855H395.121V458.411H413.062V436.855Z" fill="#8C3B47"/>
<path id="Vector_169" d="M413.062 386.488H395.121V408.043H413.062V386.488Z" fill="#8C3B47"/>
<path id="Vector_170" d="M413.062 336.117H395.121V357.676H413.062V336.117Z" fill="#8C3B47"/>
<path id="Vector_171" d="M376.25 434.597L395.121 428.616V466.892L376.25 472.872V434.597Z" fill="#964038"/>
<path id="Vector_172" d="M376.25 333.727L395.121 327.747V366.022L376.25 372.002V333.727Z" fill="#964038"/>
<path id="Vector_173" d="M376.25 427.686L395.121 421.706V372.799L376.25 378.779V427.686Z" fill="#964038"/>
<path id="Vector_174" d="M384.224 440.178L395.121 436.855V458.518L384.224 461.71V440.178Z" fill="#73303A"/>
<path id="Vector_175" d="M384.224 389.81L395.121 386.488V408.017L384.224 411.339V389.81Z" fill="#73303A"/>
<path id="Vector_176" d="M384.224 339.308L395.121 336.117V357.649L384.224 360.971V339.308Z" fill="#73303A"/>
<path id="Vector_177" d="M444.823 473.403H395.121V466.892H455.589L444.823 473.403Z" fill="#914242"/>
<path id="Vector_178" d="M395.121 473.403L376.25 479.383V472.873L395.121 466.892V473.403Z" fill="#73303A"/>
<path id="Vector_179" d="M417.848 487.225C427.681 493.736 459.711 493.47 475.79 491.078L515.129 491.876C515.278 491.894 515.43 491.882 515.576 491.834C515.722 491.79 515.853 491.715 515.966 491.614C516.079 491.516 516.172 491.39 516.231 491.253C516.294 491.113 516.327 490.964 516.324 490.812V487.225H417.848Z" fill="#B85744"/>
<path id="Vector_180" opacity="0.49" d="M417.848 487.225C427.681 493.736 459.711 493.47 475.79 491.078L515.129 491.876C515.278 491.894 515.43 491.882 515.576 491.834C515.722 491.79 515.853 491.715 515.966 491.614C516.079 491.516 516.172 491.39 516.231 491.253C516.294 491.113 516.327 490.964 516.324 490.812V487.225H417.848Z" fill="#822A8C"/>
<path id="Vector_181" d="M330.165 300.557C331.849 297.05 331.173 293.23 328.655 292.023C326.14 290.819 322.74 292.687 321.059 296.195C319.379 299.702 320.055 303.525 322.57 304.729C325.085 305.932 328.485 304.067 330.165 300.557Z" fill="#C26E4F"/>
<path id="Vector_182" d="M222.551 314.202C225.018 313.257 226.022 309.881 224.791 306.66C223.561 303.436 220.56 301.588 218.093 302.53C215.626 303.474 214.621 306.851 215.852 310.072C217.083 313.296 220.08 315.143 222.551 314.202Z" fill="#C26E4F"/>
<path id="Vector_183" d="M202.518 295.224C204.988 294.282 205.989 290.906 204.762 287.682C203.531 284.461 200.53 282.613 198.063 283.555C195.593 284.496 194.592 287.873 195.822 291.097C197.053 294.318 200.051 296.168 202.518 295.224Z" fill="#C26E4F"/>
<path id="Vector_184" d="M188.962 274.073C191.429 273.132 192.433 269.756 191.202 266.532C189.972 263.31 186.974 261.46 184.504 262.405C182.036 263.346 181.032 266.722 182.263 269.946C183.494 273.168 186.491 275.018 188.962 274.073Z" fill="#C26E4F"/>
<path id="Vector_185" d="M369.101 283.856C370.781 280.349 370.105 276.526 367.59 275.322C365.075 274.118 361.672 275.984 359.992 279.491C358.311 283.001 358.987 286.821 361.502 288.025C364.017 289.232 367.42 287.363 369.101 283.856Z" fill="#C26E4F"/>
<path id="Vector_186" d="M394.341 263.976C396.021 260.469 395.345 256.649 392.83 255.442C390.315 254.238 386.915 256.104 385.234 259.614C383.551 263.121 384.227 266.941 386.745 268.148C389.26 269.352 392.66 267.486 394.341 263.976Z" fill="#C26E4F"/>
<path id="Vector_187" d="M127.067 396.986L95.702 383.297L106.334 333.326L137.699 347.016L127.067 396.986Z" fill="#A84B3B"/>
<path id="Vector_188" d="M216.374 103.416C215.575 107.802 221.955 112.054 227.536 120.559C233.12 129.066 239.232 123.085 242.819 120.559C246.41 118.035 256.908 114.048 261.958 111.524C267.009 108.997 274.319 104.611 286.545 98.1001C285.082 93.1835 281.229 90.2603 275.648 87.7335C270.063 85.2096 254.119 84.411 247.34 84.411C240.561 84.411 227.271 84.0117 222.619 91.19C220.331 95.1561 218.248 99.2354 216.374 103.416Z" fill="#EDA14E"/>
<path id="Vector_189" d="M230.728 88.7978C234.58 88.7978 251.061 88.5326 256.377 89.063C256.774 89.1971 256.908 89.5935 256.643 89.8616L255.713 91.1906C255.266 91.7121 254.718 92.1352 254.101 92.4332C253.481 92.7312 252.808 92.895 252.122 92.9159L231.127 93.3152C229.664 93.4493 226.606 92.6507 229.264 89.4623C229.646 89.0571 230.17 88.8187 230.728 88.7978Z" fill="#F7C251"/>
<path id="Vector_190" d="M268.87 90.7905C268.932 90.707 269.013 90.6415 269.105 90.5938C269.197 90.5491 269.299 90.5253 269.4 90.5253C271.927 90.5253 277.374 92.3847 279.102 94.113C280.83 95.8412 280.83 95.7071 277.508 94.7774L269.269 93.0492C268.205 92.784 267.806 92.784 268.87 90.7905Z" fill="#F7C251"/>
<path id="Vector_191" d="M238.436 89.3268H244.947C245.045 89.3119 245.147 89.3268 245.239 89.3685C245.331 89.4103 245.409 89.4758 245.462 89.5592C245.519 89.6427 245.549 89.738 245.552 89.8393C245.555 89.9406 245.531 90.039 245.477 90.1254L244.548 92.25C244.485 92.3334 244.408 92.399 244.315 92.4467C244.223 92.4914 244.119 92.5152 244.017 92.5152H237.772C237.372 92.5152 237.107 92.25 237.238 91.8507L237.772 89.7261C237.825 89.598 237.921 89.4907 238.04 89.4192C238.159 89.3477 238.296 89.3149 238.436 89.3268Z" fill="#FFF8BA"/>
<path id="Vector_192" d="M237.503 97.3003C237.631 97.2765 237.762 97.2854 237.887 97.3242C238.009 97.3599 238.123 97.4285 238.215 97.5209C238.304 97.6132 238.373 97.7265 238.412 97.8486C238.45 97.9738 238.456 98.1049 238.432 98.23C237.503 101.821 236.043 109.395 235.378 112.452C233.65 120.027 234.049 121.755 231.522 114.446C228.999 107.137 229.13 107.137 228.599 104.61C228.069 102.086 227.139 100.623 232.187 98.7634C233.868 97.9857 235.664 97.491 237.503 97.3003Z" fill="#F0B45B"/>
<path id="Vector_193" d="M265.547 194.185C264.218 190.994 262.358 186.343 261.029 181.959C259.036 174.915 253.187 160.696 249.864 153.118C246.542 145.544 241.625 140.228 238.437 135.71C235.245 131.19 233.785 129.73 234.98 140.761C236.175 151.789 240.961 183.02 244.948 195.115C251.828 195.21 258.705 194.9 265.547 194.185Z" fill="#E58642"/>
<path id="Vector_194" d="M289.134 390.567C290.958 380.826 281.032 370.797 266.962 368.165C252.894 365.531 240.013 371.291 238.189 381.032C236.368 390.773 246.294 400.8 260.361 403.434C274.432 406.068 287.313 400.305 289.134 390.567Z" fill="#E08645"/>
<path id="Vector_195" d="M231.127 137.17C230.993 146.607 231.127 150.994 231.127 153.118C231.127 155.246 231.922 151.259 232.721 147.936C233.517 144.614 231.127 131.19 231.127 137.17Z" fill="#EDA14E"/>
<path id="Vector_196" d="M272.59 278.842L290.132 276.982C290.454 276.935 290.781 276.976 291.085 277.096C291.386 277.218 291.654 277.415 291.854 277.671C292.057 277.927 292.188 278.231 292.235 278.553C292.283 278.875 292.244 279.202 292.125 279.506C292.057 279.798 291.911 280.064 291.699 280.275C291.488 280.487 291.219 280.636 290.93 280.704L276.043 285.087H274.983L271.392 284.027C271.118 283.94 270.865 283.794 270.65 283.604C270.435 283.41 270.263 283.171 270.149 282.906C270.036 282.641 269.983 282.355 269.988 282.066C269.997 281.777 270.069 281.494 270.197 281.235L271.127 279.772C271.255 279.494 271.46 279.256 271.72 279.092C271.979 278.925 272.283 278.839 272.59 278.842Z" fill="#F7C251"/>
<path id="Vector_197" d="M593.937 268.873L571.344 291.466L563.636 294.124L504.761 296.648H501.969L493.73 287.479C493.292 273.638 493.826 259.782 495.324 246.015C498.251 215.05 504.362 189.534 509.279 186.077L510.343 185.678H567.888L572.939 190.595L594.601 266.346C594.765 266.785 594.789 267.264 594.67 267.717C594.551 268.167 594.295 268.572 593.937 268.873Z" fill="#E5924B"/>
<path id="Vector_198" d="M539.581 199.233L567.889 185.812H510.344L509.28 186.209C507.287 187.538 505.293 192.189 503.3 199.233H539.581Z" fill="#E8A553"/>
<path id="Vector_199" opacity="0.57" d="M501.573 205.482C498.596 218.885 496.51 232.47 495.324 246.147C493.826 259.917 493.292 273.77 493.73 287.614L501.969 296.782H504.761L563.636 294.258L539.845 205.613L501.573 205.482Z" fill="#CC704B"/>
<path id="Vector_200" d="M516.457 256.912H505.16L497.851 264.886L498.781 277.38L507.285 285.086H518.581L525.891 276.716L525.095 265.286L516.457 256.912Z" fill="#C46548"/>
<path id="Vector_201" d="M521.64 211.593H510.344L502.504 219.567L502.635 232.192L510.743 239.77H521.906L529.748 231.528L529.614 219.966L521.64 211.593Z" fill="#C46548"/>
<path id="Vector_202" d="M395.122 474.732C398.206 474.732 400.703 474.02 400.703 473.138C400.703 472.259 398.206 471.544 395.122 471.544C392.038 471.544 389.541 472.259 389.541 473.138C389.541 474.02 392.038 474.732 395.122 474.732Z" fill="#4D2C42"/>
<path id="Vector_203" d="M448.545 330.937L436.185 334.79C435.974 334.849 435.78 334.963 435.619 335.118C435.461 335.273 435.345 335.463 435.276 335.675C435.211 335.883 435.199 336.11 435.241 336.327C435.285 336.545 435.381 336.748 435.521 336.917L445.756 350.872C445.887 351.152 446.114 351.375 446.397 351.503C446.677 351.634 446.993 351.661 447.294 351.584C447.592 351.506 447.854 351.325 448.033 351.074C448.215 350.821 448.301 350.514 448.28 350.207L450.408 332.397C450.417 332.168 450.369 331.938 450.274 331.73C450.175 331.518 450.029 331.336 449.848 331.193C449.669 331.05 449.454 330.952 449.228 330.907C449.001 330.863 448.769 330.874 448.545 330.937Z" fill="#B56548"/>
<path id="Vector_204" d="M413.062 336.117H395.121V338.617H413.062V336.117Z" fill="#73303A"/>
<path id="Vector_205" d="M413.062 386.488H395.121V388.985H413.062V386.488Z" fill="#73303A"/>
<path id="Vector_206" d="M413.062 436.855H395.121V439.355H413.062V436.855Z" fill="#73303A"/>
<path id="Vector_207" opacity="0.1" d="M426.882 428.616L442.166 466.892H455.589V428.616H426.882Z" fill="#822A8C"/>
<path id="Vector_208" opacity="0.3" d="M310.465 414.531C305.149 385.823 283.087 362.301 261.159 362.036C256.817 361.92 252.509 362.849 248.602 364.745C244.693 366.64 241.296 369.45 238.7 372.933C232.851 382.236 230.592 395.657 233.384 410.544C238.831 439.117 260.894 462.639 282.688 463.038C287.062 463.137 291.395 462.189 295.328 460.27C299.258 458.348 302.67 455.517 305.28 452.007C311.13 442.704 313.254 429.415 310.465 414.531Z" fill="#822A8C"/>
<path id="Vector_209" d="M415.587 308.874C418.817 308.874 421.436 306.258 421.436 303.028C421.436 299.798 418.817 297.182 415.587 297.182C412.36 297.182 409.74 299.798 409.74 303.028C409.74 306.258 412.36 308.874 415.587 308.874Z" fill="#9C4B4B"/>
<path id="Vector_210" d="M252.522 133.848C252.298 135.708 252.343 137.588 252.656 139.432L266.345 135.577C266.345 135.046 266.476 134.513 266.476 134.116C266.702 132.257 266.658 130.377 266.345 128.532L252.522 132.787V133.848Z" fill="#3ECFAA"/>
<path id="Vector_211" d="M215.975 134.912C216.076 135.258 216.121 135.615 216.109 135.976L222.754 140.362C222.789 138.717 222.7 137.072 222.488 135.442C222.488 134.912 222.354 134.382 222.354 133.982L215.844 129.462C215.757 131.28 215.802 133.1 215.975 134.912Z" fill="#3ECFAA"/>
<path id="Vector_212" d="M127.067 396.985L95.7017 383.296L49.986 414.527H22.3427L56.2316 428.615H82.9453L127.067 396.985Z" fill="#8C3B47"/>
<path id="Vector_213" d="M52.1108 416.391L82.9455 428.617L116.7 404.43L89.1911 392.734L52.1108 416.391Z" fill="#914343"/>
<path id="Vector_214" d="M90.0037 414.152C94.7356 411.196 97.623 407.287 96.4579 405.418C95.2898 403.55 90.5102 404.432 85.7784 407.388C81.0495 410.344 78.1591 414.256 79.3272 416.122C80.4923 417.99 85.2748 417.108 90.0037 414.152Z" fill="#73303A"/>
<path id="Vector_215" d="M115.05 324.817C116.373 323.44 114.692 319.686 111.304 316.435C107.913 313.184 104.093 311.664 102.773 313.044C101.453 314.42 103.131 318.172 106.519 321.423C109.91 324.674 113.73 326.193 115.05 324.817Z" fill="#73303A"/>
<path id="Vector_216" d="M517.521 347.02L498.647 341.436C497.453 341.436 495.593 349.409 495.593 359.377C495.593 369.344 497.453 377.452 498.647 377.452L517.521 371.871C520.045 363.778 520.045 355.11 517.521 347.02Z" fill="#8A3D52"/>
<path id="Vector_217" opacity="0.49" d="M495.593 359.375C495.537 364.333 496.025 369.28 497.053 374.128L518.451 368.281C519.244 364.434 519.512 360.501 519.247 356.586L495.858 352.199C495.724 354.458 495.593 356.851 495.593 359.375Z" fill="#B5368A"/>
<path id="Vector_218" d="M517.521 395.392L498.647 389.811C497.453 389.811 495.593 397.785 495.593 407.752C495.593 417.72 497.453 425.825 498.647 425.825L517.521 420.243C520.045 412.153 520.045 403.485 517.521 395.392Z" fill="#8A3D52"/>
<path id="Vector_219" opacity="0.49" d="M495.593 407.752C495.528 412.707 496.019 417.656 497.053 422.502L518.451 416.655C519.244 412.811 519.512 408.875 519.247 404.96L495.858 400.573C495.724 402.835 495.593 405.225 495.593 407.752Z" fill="#B5368A"/>
<path id="Vector_220" d="M517.521 443.765L498.647 438.184C497.453 438.184 495.593 446.292 495.593 456.125C495.593 465.958 497.453 474.2 498.647 474.2L517.521 468.616C520.045 460.526 520.045 451.858 517.521 443.765Z" fill="#8A3D52"/>
<path id="Vector_221" opacity="0.49" d="M495.593 456.124C495.528 461.08 496.019 466.029 497.053 470.877L518.451 465.028C519.244 461.184 519.512 457.251 519.247 453.335L495.858 448.949C495.724 451.208 495.593 453.6 495.593 456.124Z" fill="#B5368A"/>
<path id="Vector_222" d="M19.551 400.709L-46.8979 371.606L-26.4299 274.724H-3.43794L63.011 303.828L42.5429 400.709H19.551Z" fill="#A8483B"/>
<path id="Vector_223" d="M19.551 400.709L-46.8979 371.606L-26.4299 274.724H-3.43794L63.011 303.828L42.5429 400.709H19.551Z" fill="#8C3B47"/>
<path id="Vector_224" d="M42.5427 400.709L-23.9062 371.606L-3.43818 274.724L63.0107 303.828L75.636 324.293L63.0107 383.832L42.5427 400.709Z" fill="#9C4B4B"/>
<path id="Vector_225" d="M50.516 311.402L42.8073 308.476L40.5487 287.212L25.7988 303.029L35.1017 259.438C35.1017 259.298 35.1553 259.161 35.2566 259.062C35.3549 258.961 35.492 258.908 35.6321 258.908H51.845L71.1152 267.412L69.521 277.245C68.192 285.865 67.5246 294.572 67.5275 303.294V311.402H50.516Z" fill="#8C3B47"/>
<path id="Vector_226" d="M48.3921 285.617L67.7934 293.46C68.1927 288.144 68.7231 282.694 69.5217 277.378L71.1158 267.545L51.8456 259.037L50.2514 268.874C49.3098 274.413 48.6871 280.006 48.3921 285.617Z" fill="#9C4B4B"/>
<path id="Vector_227" d="M48.3921 285.617L67.7934 293.46C68.1927 288.144 68.7231 282.694 69.5217 277.378L71.1158 267.545L51.8456 259.037L50.2514 268.874C49.3098 274.413 48.6871 280.006 48.3921 285.617Z" fill="#9C4B4B"/>
<path id="Vector_228" d="M19.6849 309.143L74.7035 328.812L75.6362 324.292L20.3494 305.821L19.6849 309.143Z" fill="#8C3B47"/>
<path id="Vector_229" d="M-3.43819 274.724C24.8667 274.724 24.4703 286.816 24.4703 286.816L3.8712 383.832L-23.9062 371.606L-3.43819 274.724Z" fill="#8C3B47"/>
<path id="Vector_230" opacity="0.1" d="M14.3679 277.112L-7.82544 378.645L3.87019 383.83L24.4694 286.814C24.4694 286.814 24.6005 280.569 14.3679 277.112Z" fill="#822A8C"/>
<path id="Vector_231" d="M2.00857 281.899H-20.8493L-37.9919 362.967H-15.1341L2.00857 281.899Z" fill="#4D2C42"/>
<path id="Vector_232" d="M-5.56593 270.334L-9.15356 287.611L27.3934 309.408H38.5556L41.3476 296.648L-5.56593 270.334Z" fill="#A33E39"/>
<path id="Vector_233" d="M-31.4813 251.597L-26.6958 271.663L-37.1965 278.972L-34.4045 284.422L-21.6481 291.067H7.32427L12.1098 264.621L-31.4813 251.597Z" fill="#A33E39"/>
<path id="Vector_234" d="M7.32426 251.597L1.47794 278.972H-37.1965L-35.7334 271.663H-34.6697L-32.2799 260.5L-32.9444 258.906L-31.4813 251.597H7.32426Z" fill="#CC704B"/>
<path id="Vector_235" d="M-31.8796 253.856L6.39554 255.584L7.32522 251.597H-31.4804L-31.8796 253.856Z" fill="#F0AA56"/>
<path id="Vector_236" d="M5.72968 258.908H-3.17391L-5.96594 271.664H3.07172L5.72968 258.908Z" fill="#9C4B4B"/>
<path id="Vector_237" d="M5.72897 258.908H-3.1746L-3.57385 260.502H5.46375L5.72897 258.908Z" fill="#8C3B47"/>
<path id="Vector_238" d="M39.6201 304.357L35.7673 302.763C25.1474 298.087 15.3618 291.714 6.79491 283.892L1.479 278.972L7.32534 251.597L12.6412 256.379C21.1872 264.234 30.9787 270.611 41.6136 275.253L44.0063 276.314C44.4146 276.514 44.7423 276.847 44.936 277.259C45.1297 277.67 45.1744 278.132 45.0701 278.576L39.6201 304.357Z" fill="#B85744"/>
<path id="Vector_239" d="M3.91256 289.554C4.28802 288.52 2.01741 286.747 -1.15605 285.599C-4.33249 284.449 -7.20797 284.357 -7.58342 285.391C-7.95888 286.428 -5.68827 288.198 -2.51481 289.348C0.661633 290.495 3.53711 290.588 3.91256 289.554Z" fill="#4D2C42"/>
<path id="Vector_240" d="M5.73071 258.908L12.906 265.284L10.2481 278.178L3.07275 271.664L5.73071 258.908Z" fill="#8C3B47"/>
<path id="Vector_241" d="M38.5556 280.3L36.9614 288.408C36.872 288.828 36.6664 289.216 36.3655 289.523C36.0645 289.83 35.6831 290.044 35.2629 290.142C34.8457 290.241 34.4077 290.217 34.0025 290.074C33.5972 289.931 33.2397 289.678 32.9745 289.338L27.2592 281.364C27.0626 281.14 26.9195 280.875 26.8391 280.589C26.7586 280.303 26.7437 280.002 26.7944 279.71C26.845 279.415 26.9612 279.138 27.1341 278.897C27.3069 278.652 27.5304 278.453 27.7926 278.307L29.3868 277.246L30.8469 276.978L36.6962 277.776C36.9882 277.806 37.2713 277.898 37.5276 278.047C37.7838 278.193 38.0073 278.39 38.1801 278.629C38.3559 278.867 38.4811 279.138 38.5436 279.427C38.6092 279.713 38.6122 280.011 38.5556 280.3Z" fill="#B86544"/>
<path id="Vector_242" d="M-13.2752 306.88L-16.9969 324.157L19.6841 345.954H30.8463L33.5042 333.195L-13.2752 306.88Z" fill="#A33E39"/>
<path id="Vector_243" d="M-39.1893 288.143L-34.4038 308.343L-45.0356 315.652L-42.1125 321.102L-29.3531 327.613H-0.514843L4.40176 301.168L-39.1893 288.143Z" fill="#A33E39"/>
<path id="Vector_244" d="M31.9109 341.037L28.0581 339.309C17.4203 334.666 7.63181 328.289 -0.914162 320.438L-6.2301 315.652L-0.383782 288.143L4.80103 293.06C13.4155 300.887 23.2458 307.261 33.9044 311.931L36.1631 312.863C36.613 313.015 36.9885 313.334 37.212 313.754C37.4354 314.174 37.4861 314.663 37.361 315.122L31.9109 341.037Z" fill="#B85744"/>
<path id="Vector_245" d="M-1.97841 295.454L5.19987 301.964L2.4078 314.724L-4.63635 308.344L-1.97841 295.454Z" fill="#8C3B47"/>
<path id="Vector_246" d="M16.0968 306.88L8.25403 322.429L22.3424 331.335L23.4062 312.461L16.0968 306.88Z" fill="#B35448"/>
<path id="Vector_247" d="M-46.8979 371.604H-23.906C4.26772 371.604 3.87143 383.83 3.87143 383.83L42.5429 400.707H19.551L-46.8979 371.604Z" fill="#73303A"/>
<path id="Vector_248" d="M7.98987 364.161L63.0114 383.83L63.9411 379.31L8.78846 360.838L7.98987 364.161Z" fill="#8C3B47"/>
<path id="Vector_249" d="M55.0372 267.41L65.9343 272.196L66.9981 265.551L56.098 260.766L55.0372 267.41Z" fill="#8C3B47"/>
<path id="Vector_250" d="M143.679 241.096H136.769C135.86 241.102 134.966 241.307 134.147 241.692C133.327 242.079 132.6 242.639 132.019 243.336C131.435 244.031 131.012 244.844 130.776 245.72C130.541 246.596 130.499 247.511 130.654 248.405L132.782 265.017C135.964 282.559 143.762 298.936 155.374 312.464L163.214 321.633C164.74 323.448 166.745 324.797 169.001 325.528C171.257 326.255 173.673 326.332 175.974 325.754L183.548 323.892" stroke="#331D2C" stroke-width="16.9529" stroke-linecap="round" stroke-linejoin="round"/>
<path id="Vector_251" d="M87.862 418.915L79.754 415.593L96.6315 404.961L98.3597 412.005C95.3025 416.522 87.862 418.915 87.862 418.915Z" fill="#73303A"/>
<path id="Vector_252" d="M103.411 313.924L109.257 310.602C109.257 310.602 114.573 311.797 118.429 319.64L115.771 325.486L103.411 313.924Z" fill="#73303A"/>
<path id="Vector_253" d="M511.938 271.001C526.426 271.001 541.575 270.867 564.966 276.448" stroke="#361F2E" stroke-width="1.49154" stroke-linecap="round" stroke-linejoin="round"/>
<path id="Vector_254" d="M263.286 362.034L249.997 398.98C249.877 399.287 249.866 399.623 249.964 399.936C250.059 400.249 250.259 400.52 250.527 400.708L280.694 422.237C281.031 422.431 281.272 422.749 281.374 423.125C281.472 423.497 281.421 423.897 281.228 424.23L263.686 457.056C265.414 458.185 267.238 459.162 269.133 459.979L289.067 422.371C289.273 422.052 289.348 421.665 289.273 421.292C289.199 420.92 288.981 420.592 288.668 420.378L257.836 398.449C257.568 398.262 257.369 397.991 257.273 397.678C257.175 397.362 257.187 397.028 257.306 396.721L269.267 363.097C267.297 362.615 265.301 362.26 263.286 362.034Z" fill="#9C4B4B"/>
<path id="Vector_255" d="M255.561 374.531C256.753 372.507 256.487 370.144 254.971 369.25C253.454 368.354 251.255 369.271 250.063 371.295C248.871 373.318 249.136 375.684 250.653 376.578C252.173 377.472 254.369 376.557 255.561 374.531Z" fill="#D67342"/>
<path id="Vector_256" d="M246.8 396.075C247.992 394.051 247.73 391.686 246.21 390.792C244.694 389.898 242.497 390.812 241.306 392.836C240.114 394.862 240.376 397.225 241.893 398.119C243.412 399.013 245.608 398.098 246.8 396.075Z" fill="#B35146"/>
<path id="Vector_257" d="M258.042 417.668C259.234 415.645 258.968 413.279 257.452 412.385C255.932 411.491 253.736 412.406 252.544 414.429C251.352 416.452 251.617 418.818 253.134 419.712C254.651 420.606 256.85 419.691 258.042 417.668Z" fill="#B35146"/>
<path id="Vector_258" d="M273.955 377.02C275.147 374.997 274.882 372.631 273.365 371.737C271.848 370.843 269.649 371.761 268.457 373.784C267.265 375.808 267.53 378.173 269.047 379.067C270.567 379.961 272.763 379.047 273.955 377.02Z" fill="#D67342"/>
<path id="Vector_259" d="M271.371 396.021C272.563 393.997 272.301 391.632 270.781 390.738C269.264 389.844 267.068 390.758 265.876 392.782C264.684 394.808 264.947 397.171 266.466 398.065C267.983 398.959 270.179 398.044 271.371 396.021Z" fill="#B35146"/>
<path id="Vector_260" d="M292.265 411.852C293.457 409.829 293.195 407.463 291.675 406.569C290.159 405.675 287.962 406.59 286.771 408.613C285.579 410.636 285.841 413.002 287.361 413.896C288.877 414.79 291.073 413.875 292.265 411.852Z" fill="#B35146"/>
<path id="Vector_261" d="M295.677 438.377C296.869 436.354 296.603 433.988 295.087 433.094C293.567 432.2 291.371 433.115 290.179 435.138C288.987 437.161 289.252 439.527 290.769 440.421C292.286 441.315 294.485 440.4 295.677 438.377Z" fill="#B35146"/>
<path id="Vector_262" d="M209.064 469.15L294.917 511.677H234.314H181.5L209.198 450.678L209.064 469.15Z" fill="#B35146"/>
<path id="Vector_263" d="M270.597 456.125C274.706 456.125 278.037 452.794 278.037 448.682C278.037 444.573 274.706 441.241 270.597 441.241C266.484 441.241 263.153 444.573 263.153 448.682C263.153 452.794 266.484 456.125 270.597 456.125Z" fill="#5E4852"/>
<path id="Vector_264" d="M243.458 380.425C245.407 379.114 245.153 375.336 242.898 371.989C240.639 368.64 237.23 366.992 235.284 368.306C233.336 369.62 233.589 373.399 235.845 376.745C238.103 380.091 241.512 381.739 243.458 380.425Z" fill="#705D6A"/>
</g>
</g>
</g>
<defs>
<linearGradient id="paint0_linear_107_22" x1="263.552" y1="356.24" x2="278.954" y2="459.516" gradientUnits="userSpaceOnUse">
<stop stop-color="#E08645"/>
<stop offset="1" stop-color="#D66A4A"/>
</linearGradient>
<clipPath id="clip0_107_22">
<rect width="512" height="512" fill="white"/>
</clipPath>
<clipPath id="clip1_107_22">
<rect width="512" height="512" fill="white"/>
</clipPath>
</defs>
</svg>
