<svg width="512" height="512" viewBox="0 0 512 512" fill="none" xmlns="http://www.w3.org/2000/svg">
<g id="Small Icon">
<rect width="512" height="512" fill="#F44649"/>
<g id="Discord Other">
<g id="Group">
<path id="Vector" d="M159.333 96.6667L357.667 295L393 259.667L416.5 283.167L375.333 324.333L428.333 377.333C434.833 383.833 434.833 394.333 428.333 400.833L416.5 412.667C410 419.167 399.5 419.167 393 412.667L339.333 359.833L298.667 401L275.167 377.5L310.5 342.167L112.167 143.833V96.6667H159.333ZM320.833 222.667L399.833 143.667V96.6667H352.667L273.667 175.667L320.833 222.667ZM238.333 306L191.167 258.167L154.333 295L119 259.667L95.5001 283.167L136.667 324.333L83.6667 377.5C77.1667 384 77.1667 394.5 83.6667 401L95.5001 412.833C102 419.333 112.5 419.333 119 412.833L172.667 359.833L213.333 401L236.833 377.5L201.5 342.167L238.333 306Z" fill="white"/>
</g>
</g>
</g>
</svg>
